# xmcd CD database file
#
# Track frame offsets:
#	150
#	19887
#	35132
#	52187
#	70060
#	86582
#	100629
#	114717
#	131010
#	144457
#	159790
#	175977
#	188382
#	201447
#	212640
#	228975
#	245200
#	260190
#	278632
#	294320
#	312640
#	313280
#	314762
#	316080
#	316897
#	317850
#	318775
#	319662
#	320627
#	321597
#	322670
#	323765
#	325425
#	326247
#	327110
#	327647
#	328832
#	329662
#	330360
#	331040
#	331930
#
# Disc length: 4438 seconds
#
# Revision: 0
# Processed by: cddbd v1.5.2PL0 Copyright (c) Steve Scherf et al.
# Submitted via: CDex 1.70beta2
#
DISCID=7f115429
DTITLE=Jones Country - Jones Country Recurrent CHC-1167
DYEAR=0000
DGENRE=Country
TTITLE0=Vince Gill/Go Rest High On That Mountain [edit version]
TTITLE1=Aaron Tippin/That's As Close As I'll Get To Loving You
TTITLE2=Mavericks/Here Comes The Rain
TTITLE3=Tracy Byrd/Love Lessons
TTITLE4=James House/Anything For Love
TTITLE5=Hal Ketchum/Five O'Clock World
TTITLE6=Steve Wariner/It Won't Be Over You
TTITLE7=Dwight Yoakam/Please, Please Baby
TTITLE8=Garth Brooks/She's Every Woman
TTITLE9=Dolly Parton and Vince Gill/I Will Always Love You
TTITLE10=Mark Chesnutt/Trouble
TTITLE11=Clay Walker/Who Needs You Baby [album version]
TTITLE12=Brooks and Dunn/Whiskey Under The Bridge
TTITLE13=Doug Stone/Born In The Dark
TTITLE14=Alabama/In Pictures
TTITLE15=Jeff Carson/Car
TTITLE16=George Strait/Check Yes Or No
TTITLE17=Ty Herndon and Stephanie Bentley/Heart Half Empty [radio edit]
TTITLE18=Pam Tillis/Deep Down
TTITLE19=Bryan White/Rebecca Lynn
TTITLE20=Production Track 21
TTITLE21=Production Track 22
TTITLE22=Production Track 23
TTITLE23=Production Track 24
TTITLE24=Production Track 25
TTITLE25=Production Track 26
TTITLE26=Production Track 27
TTITLE27=Production Track 28
TTITLE28=Production Track 29
TTITLE29=Production Track #0
TTITLE30=Production Track 31
TTITLE31=Production Track 32
TTITLE32=Production Track 33
TTITLE33=Production Track 34
TTITLE34=Production Track 35
TTITLE35=Production Track 36
TTITLE36=Production Track 37
TTITLE37=Production Track 38
TTITLE38=Production Track 39
TTITLE39=Production Track 40
TTITLE40=Production Track 41
EXTD=YEAR: 0000
EXTT0=
EXTT1=
EXTT2=
EXTT3=
EXTT4=
EXTT5=
EXTT6=
EXTT7=
EXTT8=
EXTT9=
EXTT10=
EXTT11=
EXTT12=
EXTT13=
EXTT14=
EXTT15=
EXTT16=
EXTT17=
EXTT18=
EXTT19=
EXTT20=
EXTT21=
EXTT22=
EXTT23=
EXTT24=
EXTT25=
EXTT26=
EXTT27=
EXTT28=
EXTT29=
EXTT30=
EXTT31=
EXTT32=
EXTT33=
EXTT34=
EXTT35=
EXTT36=
EXTT37=
EXTT38=
EXTT39=
EXTT40=
PLAYORDER=
